<svg width="20" height="19" viewBox="0 0 20 19" fill="none" xmlns="http://www.w3.org/2000/svg">
<path d="M15.233 11.7698C14.838 11.3648 14.3616 11.1483 13.8567 11.1483C13.3559 11.1483 12.8754 11.3608 12.4642 11.7658L11.1775 13.029C11.0716 12.9729 10.9658 12.9207 10.864 12.8686C10.7174 12.7964 10.5789 12.7282 10.4609 12.6561C9.25561 11.9022 8.16031 10.9197 7.10979 9.6485C6.60082 9.0149 6.25879 8.48156 6.01041 7.9402C6.34429 7.63944 6.65375 7.32666 6.95506 7.0259C7.06907 6.91362 7.18308 6.79733 7.29709 6.68504C8.15216 5.84293 8.15216 4.75218 7.29709 3.91007L6.18549 2.81531C6.05927 2.691 5.92897 2.56268 5.80682 2.43436C5.56251 2.18573 5.30599 1.92909 5.04133 1.68848C4.64636 1.30351 4.17404 1.099 3.67728 1.099C3.18052 1.099 2.70006 1.30351 2.29288 1.68848C2.28881 1.69249 2.28881 1.69249 2.28473 1.6965L0.90033 3.07196C0.379143 3.58525 0.0819032 4.21082 0.0167548 4.93665C-0.0809679 6.10759 0.269205 7.19833 0.537942 7.91213C1.19757 9.66454 2.18294 11.2886 3.65285 13.029C5.43629 15.1263 7.58211 16.7824 10.0333 17.9494C10.9698 18.3865 12.2199 18.9038 13.6165 18.992C13.702 18.996 13.7916 19 13.873 19C14.8136 19 15.6035 18.6672 16.2224 18.0055C16.2265 17.9975 16.2346 17.9935 16.2387 17.9855C16.4504 17.7328 16.6947 17.5042 16.9513 17.2596C17.1264 17.0952 17.3055 16.9228 17.4806 16.7423C17.8837 16.3293 18.0954 15.8481 18.0954 15.3548C18.0954 14.8576 17.8796 14.3804 17.4684 13.9794L15.233 11.7698ZM16.6907 15.9924C16.6866 15.9924 16.6866 15.9965 16.6907 15.9924C16.5319 16.1609 16.369 16.3133 16.1939 16.4817C15.9293 16.7303 15.6605 16.991 15.4081 17.2837C14.9968 17.7168 14.5123 17.9213 13.8771 17.9213C13.816 17.9213 13.7509 17.9213 13.6898 17.9173C12.4805 17.8411 11.3567 17.3759 10.5138 16.9789C8.20917 15.8802 6.1855 14.3202 4.50385 12.3433C3.11538 10.6951 2.18701 9.1713 1.57217 7.53518C1.1935 6.53667 1.05506 5.75872 1.11613 5.02487C1.15685 4.55569 1.34008 4.16671 1.67804 3.83388L3.06651 2.46644C3.26603 2.28197 3.47776 2.18172 3.68543 2.18172C3.94195 2.18172 4.14961 2.3341 4.2799 2.46243C4.28398 2.46644 4.28805 2.47045 4.29212 2.47446C4.5405 2.70303 4.77666 2.93963 5.02504 3.19226C5.15126 3.32059 5.28156 3.44891 5.41186 3.58124L6.52345 4.67599C6.95506 5.10106 6.95506 5.49405 6.52345 5.91912C6.40537 6.03541 6.29136 6.1517 6.17328 6.26399C5.83125 6.60885 5.50551 6.92966 5.15126 7.24245C5.14312 7.25047 5.13498 7.25448 5.13091 7.2625C4.78073 7.60736 4.84588 7.94421 4.91917 8.17278C4.92324 8.18481 4.92732 8.19685 4.93139 8.20888C5.22048 8.89861 5.62766 9.54824 6.24657 10.3222L6.25064 10.3262C7.37445 11.6896 8.55934 12.7523 9.86638 13.5663C10.0333 13.6706 10.2043 13.7548 10.3672 13.835C10.5138 13.9072 10.6522 13.9754 10.7703 14.0476C10.7866 14.0556 10.8029 14.0676 10.8192 14.0756C10.9576 14.1438 11.0879 14.1759 11.2223 14.1759C11.5602 14.1759 11.772 13.9674 11.8412 13.8992L13.2337 12.5277C13.3722 12.3914 13.5921 12.227 13.8486 12.227C14.101 12.227 14.3087 12.3834 14.4349 12.5197C14.439 12.5237 14.439 12.5237 14.4431 12.5277L16.6866 14.7373C17.106 15.1463 17.106 15.5674 16.6907 15.9924Z" fill="white"/>
<path d="M10.4122 4.51961C11.479 4.69605 12.4481 5.1933 13.2217 5.95522C13.9953 6.71713 14.4962 7.67153 14.6794 8.72217C14.7242 8.98684 14.9563 9.1713 15.2209 9.1713C15.2535 9.1713 15.282 9.16729 15.3146 9.16328C15.6159 9.11516 15.8154 8.83446 15.7666 8.53771C15.5467 7.26651 14.9359 6.1076 14.0035 5.18929C13.071 4.27098 11.8943 3.66947 10.6036 3.45293C10.3022 3.40481 10.0213 3.6013 9.96836 3.89404C9.91543 4.18677 10.1109 4.47149 10.4122 4.51961Z" fill="white"/>
<path d="M19.256 8.38131C18.8936 6.28804 17.892 4.38325 16.3528 2.86744C14.8137 1.35163 12.8796 0.365151 10.7541 0.00825335C10.4569 -0.0438777 10.1759 0.156626 10.123 0.449363C10.0742 0.746109 10.2737 1.0228 10.575 1.07494C12.4724 1.39173 14.2029 2.27796 15.5792 3.62936C16.9555 4.98477 17.8512 6.68905 18.1729 8.55775C18.2177 8.82242 18.4498 9.00688 18.7145 9.00688C18.747 9.00688 18.7755 9.00287 18.8081 8.99886C19.1054 8.95475 19.3089 8.67404 19.256 8.38131Z" fill="white"/>
</svg>
