<svg width="20" height="21" viewBox="0 0 20 21" fill="none" xmlns="http://www.w3.org/2000/svg">
<g clip-path="url(#clip0)">
<path d="M19.98 6.68006C19.9332 5.61738 19.7613 4.8868 19.5152 4.25374C19.2612 3.58177 18.8705 2.98015 18.3586 2.48002C17.8585 1.97211 17.2529 1.57744 16.5887 1.32745C15.952 1.08128 15.2252 0.90943 14.1626 0.862576C13.0919 0.811755 12.7521 0.800003 10.0367 0.800003C7.32132 0.800003 6.98144 0.811755 5.9148 0.858608C4.85212 0.905462 4.12154 1.07746 3.48863 1.32348C2.81651 1.57744 2.21489 1.96814 1.71476 2.48002C1.20685 2.98015 0.812331 3.58573 0.562191 4.24993C0.316019 4.8868 0.144171 5.61341 0.0973175 6.67609C0.0464958 7.7467 0.0347443 8.08658 0.0347443 10.802C0.0347443 13.5173 0.0464958 13.8572 0.0933494 14.9239C0.140203 15.9865 0.312203 16.7171 0.558375 17.3502C0.812331 18.0221 1.20685 18.6238 1.71476 19.1239C2.21489 19.6318 2.82047 20.0265 3.48467 20.2765C4.12154 20.5226 4.84815 20.6945 5.91098 20.7413C6.97747 20.7883 7.3175 20.7999 10.0329 20.7999C12.7482 20.7999 13.0881 20.7883 14.1548 20.7413C15.2174 20.6945 15.948 20.5226 16.5809 20.2765C17.925 19.7568 18.9877 18.6941 19.5074 17.3502C19.7534 16.7133 19.9254 15.9865 19.9722 14.9239C20.0191 13.8572 20.0309 13.5173 20.0309 10.802C20.0309 8.08658 20.0269 7.7467 19.98 6.68006ZM18.179 14.8457C18.136 15.8225 17.9719 16.3499 17.8351 16.7015C17.4991 17.5728 16.8076 18.2644 15.9363 18.6004C15.5846 18.7372 15.0534 18.9012 14.0804 18.9441C13.0256 18.9911 12.7092 19.0027 10.0407 19.0027C7.37214 19.0027 7.0518 18.9911 6.00072 18.9441C5.02397 18.9012 4.49652 18.7372 4.14489 18.6004C3.7113 18.4402 3.31663 18.1862 2.99629 17.8541C2.66419 17.5298 2.41024 17.1391 2.24999 16.7055C2.11324 16.3539 1.94918 15.8225 1.90629 14.8497C1.85929 13.7948 1.84769 13.4783 1.84769 10.8097C1.84769 8.14122 1.85929 7.82087 1.90629 6.76995C1.94918 5.7932 2.11324 5.26575 2.24999 4.91412C2.41024 4.48038 2.66419 4.08586 3.00026 3.76536C3.32442 3.43327 3.71512 3.17931 4.14886 3.01922C4.50049 2.88247 5.0319 2.71841 6.00469 2.67537C7.05958 2.62852 7.37611 2.61676 10.0445 2.61676C12.717 2.61676 13.0333 2.62852 14.0844 2.67537C15.0612 2.71841 15.5886 2.88247 15.9402 3.01922C16.3738 3.17931 16.7685 3.43327 17.0888 3.76536C17.4209 4.08968 17.6749 4.48038 17.8351 4.91412C17.9719 5.26575 18.136 5.79701 18.179 6.76995C18.2258 7.82484 18.2376 8.14122 18.2376 10.8097C18.2376 13.4783 18.2258 13.7908 18.179 14.8457Z" fill="white" fill-opacity="0.7"/>
<path d="M10.0371 5.66423C7.20069 5.66423 4.89937 7.9654 4.89937 10.802C4.89937 13.6385 7.20069 15.9397 10.0371 15.9397C12.8736 15.9397 15.1748 13.6385 15.1748 10.802C15.1748 7.9654 12.8736 5.66423 10.0371 5.66423ZM10.0371 14.1347C8.19698 14.1347 6.70438 12.6422 6.70438 10.802C6.70438 8.96169 8.19698 7.46924 10.0371 7.46924C11.8774 7.46924 13.3698 8.96169 13.3698 10.802C13.3698 12.6422 11.8774 14.1347 10.0371 14.1347Z" fill="white" fill-opacity="0.7"/>
<path d="M16.5775 5.4611C16.5775 6.12346 16.0405 6.66052 15.378 6.66052C14.7156 6.66052 14.1785 6.12346 14.1785 5.4611C14.1785 4.79858 14.7156 4.26167 15.378 4.26167C16.0405 4.26167 16.5775 4.79858 16.5775 5.4611Z" fill="white" fill-opacity="0.7"/>
</g>
<defs>
<clipPath id="clip0">
<rect width="20" height="20" fill="white" transform="translate(0 0.800003)"/>
</clipPath>
</defs>
</svg>
