<svg width="118" height="43" viewBox="0 0 118 43" fill="none" xmlns="http://www.w3.org/2000/svg">
<path d="M21.34 15.08C20.7667 16.9467 19.9867 18.42 19 19.5C18.0133 20.5667 16.9067 21.1 15.68 21.1C14.7467 21.1 14.0533 20.8333 13.6 20.3C13.16 19.7667 12.94 19.0333 12.94 18.1C12.94 17.5 13.0333 16.8133 13.22 16.04H13.18C12.4067 17.72 11.5733 18.9867 10.68 19.84C9.8 20.68 8.73333 21.1 7.48 21.1C6.36 21.1 5.54 20.7933 5.02 20.18C4.5 19.5667 4.24 18.7333 4.24 17.68C4.24 17.0933 4.32667 16.38 4.5 15.54L5.74 9.82C5.76667 9.71333 5.82667 9.42 5.92 8.94C6.02667 8.46 6.08 7.94 6.08 7.38C6.08 7.06 6.01333 6.82 5.88 6.66C5.76 6.5 5.59333 6.42 5.38 6.42C4.98 6.42 4.51333 6.61333 3.98 7C3.44667 7.37333 2.88667 7.95333 2.3 8.74C2.11333 8.99333 1.90667 9.12 1.68 9.12C1.49333 9.12 1.32667 9.03333 1.18 8.86C1.04667 8.67333 0.98 8.46667 0.98 8.24C0.98 7.82667 1.16667 7.36 1.54 6.84C2.9 4.97333 4.49333 4.04 6.32 4.04C7.13333 4.04 7.76667 4.28667 8.22 4.78C8.68667 5.27333 8.92 6 8.92 6.96C8.92 7.64 8.87333 8.26667 8.78 8.84C8.68667 9.41333 8.52667 10.1933 8.3 11.18L7.48 14.84C7.45333 14.96 7.40667 15.1733 7.34 15.48C7.27333 15.7867 7.22 16.08 7.18 16.36C7.14 16.6267 7.12 16.8933 7.12 17.16C7.12 17.5867 7.24 17.9267 7.48 18.18C7.72 18.4333 8.06 18.56 8.5 18.56C9.16667 18.56 9.88 18.1333 10.64 17.28C11.4133 16.4133 12.14 15.0267 12.82 13.12C13.5133 11.2133 14.0533 8.79333 14.44 5.86C14.5333 5.18 14.6667 4.70667 14.84 4.44C15.0267 4.17333 15.38 4.04 15.9 4.04C16.3667 4.04 16.7133 4.18 16.94 4.46C17.1667 4.74 17.28 5.19333 17.28 5.82C17.28 6.3 17.2 6.91333 17.04 7.66C16.88 8.40667 16.64 9.41333 16.32 10.68C15.9467 12.2 15.66 13.4467 15.46 14.42C15.26 15.38 15.16 16.2267 15.16 16.96C15.16 17.4667 15.2733 17.86 15.5 18.14C15.74 18.42 16.0867 18.56 16.54 18.56C17.2067 18.56 17.92 18.1333 18.68 17.28C19.4533 16.4133 20.18 15.0267 20.86 13.12C21.5533 11.2133 22.0933 8.79333 22.48 5.86C22.5733 5.18 22.7067 4.70667 22.88 4.44C23.0667 4.17333 23.42 4.04 23.94 4.04C24.4067 4.04 24.7533 4.18 24.98 4.46C25.2067 4.74 25.32 5.19333 25.32 5.82C25.32 6.19333 25.26 6.78667 25.14 7.6C25.0333 8.41333 24.9 9.29333 24.74 10.24C24.4333 11.9333 24.1667 13.6267 23.94 15.32C23.8333 16.0933 23.78 16.6667 23.78 17.04C23.78 17.5867 23.9 18.0067 24.14 18.3C24.3933 18.58 24.7267 18.72 25.14 18.72C25.58 18.72 26.0067 18.5733 26.42 18.28C26.8467 17.9867 27.3467 17.5 27.92 16.82C28.08 16.6333 28.26 16.54 28.46 16.54C28.6333 16.54 28.7667 16.62 28.86 16.78C28.9667 16.94 29.02 17.16 29.02 17.44C29.02 17.96 28.8933 18.3733 28.64 18.68C27.96 19.52 27.28 20.1333 26.6 20.52C25.92 20.9067 25.2 21.1 24.44 21.1C23.3333 21.1 22.4933 20.82 21.92 20.26C21.36 19.6867 21.08 18.9467 21.08 18.04C21.08 17.2667 21.1667 16.28 21.34 15.08ZM29.8692 21.1C29.0426 21.1 28.3826 20.8 27.8892 20.2C27.3959 19.6 27.1492 18.8133 27.1492 17.84C27.1492 16.7733 27.3959 15.7667 27.8892 14.82C28.3826 13.86 29.0359 13.0933 29.8492 12.52C30.6759 11.9333 31.5492 11.64 32.4692 11.64C32.7626 11.64 32.9559 11.7 33.0492 11.82C33.1559 11.9267 33.2426 12.1267 33.3092 12.42C33.5892 12.3667 33.8826 12.34 34.1892 12.34C34.8426 12.34 35.1692 12.5733 35.1692 13.04C35.1692 13.32 35.0692 13.9867 34.8692 15.04C34.5626 16.5733 34.4092 17.64 34.4092 18.24C34.4092 18.44 34.4559 18.6 34.5492 18.72C34.6559 18.84 34.7892 18.9 34.9492 18.9C35.2026 18.9 35.5092 18.74 35.8692 18.42C36.2292 18.0867 36.7159 17.5533 37.3292 16.82C37.4892 16.6333 37.6692 16.54 37.8692 16.54C38.0426 16.54 38.1759 16.62 38.2692 16.78C38.3759 16.94 38.4292 17.16 38.4292 17.44C38.4292 17.9733 38.3026 18.3867 38.0492 18.68C37.5026 19.36 36.9226 19.9333 36.3092 20.4C35.6959 20.8667 35.1026 21.1 34.5292 21.1C34.0892 21.1 33.6826 20.9533 33.3092 20.66C32.9492 20.3533 32.6759 19.94 32.4892 19.42C31.7959 20.54 30.9226 21.1 29.8692 21.1ZM30.5892 19.08C30.8826 19.08 31.1626 18.9067 31.4292 18.56C31.6959 18.2133 31.8892 17.7533 32.0092 17.18L32.7492 13.5C32.1892 13.5133 31.6692 13.7267 31.1892 14.14C30.7226 14.54 30.3492 15.0733 30.0692 15.74C29.7892 16.4067 29.6492 17.1133 29.6492 17.86C29.6492 18.2733 29.7292 18.58 29.8892 18.78C30.0626 18.98 30.2959 19.08 30.5892 19.08ZM39.8331 11.5C40.8331 11.5 41.5865 11.68 42.0931 12.04C42.6131 12.3867 42.8731 12.8933 42.8731 13.56C42.8731 14.1333 42.7531 14.6133 42.5131 15C42.2731 15.3867 41.9865 15.6933 41.6531 15.92C41.3198 16.1467 40.8865 16.3933 40.3531 16.66C39.7798 16.9533 39.3598 17.2067 39.0931 17.42C38.8265 17.6333 38.6931 17.92 38.6931 18.28C38.6931 18.5733 38.7998 18.78 39.0131 18.9C39.2265 19.02 39.5998 19.08 40.1331 19.08C40.9198 19.08 41.6998 18.8867 42.4731 18.5C43.2598 18.1 43.9531 17.54 44.5531 16.82C44.6998 16.6333 44.8798 16.54 45.0931 16.54C45.2665 16.54 45.3998 16.62 45.4931 16.78C45.5998 16.94 45.6531 17.16 45.6531 17.44C45.6531 17.9333 45.5265 18.3467 45.2731 18.68C44.6331 19.5333 43.8531 20.1867 42.9331 20.64C42.0131 21.08 40.9931 21.3 39.8731 21.3C38.6998 21.3 37.7931 21.1 37.1531 20.7C36.5131 20.2867 36.1931 19.6267 36.1931 18.72C36.1931 18.1467 36.3131 17.66 36.5531 17.26C36.8065 16.8467 37.1065 16.5133 37.4531 16.26C37.8131 15.9933 38.2598 15.72 38.7931 15.44C39.3398 15.1467 39.7398 14.8933 39.9931 14.68C40.2465 14.4533 40.3731 14.1867 40.3731 13.88C40.3731 13.7067 40.2998 13.5733 40.1531 13.48C40.0065 13.3733 39.7931 13.32 39.5131 13.32C39.2598 13.32 39.0331 13.36 38.8331 13.44C38.6331 13.5067 38.4131 13.6067 38.1731 13.74C38.0398 13.8067 37.8998 13.8733 37.7531 13.94C37.6198 13.9933 37.4931 14.02 37.3731 14.02C37.1198 14.02 36.9198 13.94 36.7731 13.78C36.6398 13.6067 36.5731 13.3867 36.5731 13.12C36.5731 12.76 36.7398 12.4533 37.0731 12.2C37.3398 12 37.7331 11.8333 38.2531 11.7C38.7731 11.5667 39.2998 11.5 39.8331 11.5ZM46.4708 21.1C45.6441 21.1 44.9841 20.8 44.4908 20.2C43.9974 19.6 43.7508 18.8133 43.7508 17.84C43.7508 16.7733 43.9974 15.7667 44.4908 14.82C44.9841 13.86 45.6374 13.0933 46.4508 12.52C47.2774 11.9333 48.1508 11.64 49.0708 11.64C49.3641 11.64 49.5574 11.7 49.6508 11.82C49.7574 11.9267 49.8441 12.1267 49.9108 12.42C50.1908 12.3667 50.4841 12.34 50.7908 12.34C51.4441 12.34 51.7708 12.5733 51.7708 13.04C51.7708 13.32 51.6708 13.9867 51.4708 15.04C51.1641 16.5733 51.0108 17.64 51.0108 18.24C51.0108 18.44 51.0574 18.6 51.1508 18.72C51.2574 18.84 51.3908 18.9 51.5508 18.9C51.8041 18.9 52.1108 18.74 52.4708 18.42C52.8308 18.0867 53.3174 17.5533 53.9308 16.82C54.0908 16.6333 54.2708 16.54 54.4708 16.54C54.6441 16.54 54.7774 16.62 54.8708 16.78C54.9774 16.94 55.0308 17.16 55.0308 17.44C55.0308 17.9733 54.9041 18.3867 54.6508 18.68C54.1041 19.36 53.5241 19.9333 52.9108 20.4C52.2974 20.8667 51.7041 21.1 51.1308 21.1C50.6908 21.1 50.2841 20.9533 49.9108 20.66C49.5508 20.3533 49.2774 19.94 49.0908 19.42C48.3974 20.54 47.5241 21.1 46.4708 21.1ZM47.1908 19.08C47.4841 19.08 47.7641 18.9067 48.0308 18.56C48.2974 18.2133 48.4908 17.7533 48.6108 17.18L49.3508 13.5C48.7908 13.5133 48.2708 13.7267 47.7908 14.14C47.3241 14.54 46.9508 15.0733 46.6708 15.74C46.3908 16.4067 46.2508 17.1133 46.2508 17.86C46.2508 18.2733 46.3308 18.58 46.4908 18.78C46.6641 18.98 46.8974 19.08 47.1908 19.08ZM62.3253 16.54C62.4986 16.54 62.632 16.62 62.7253 16.78C62.832 16.94 62.8853 17.16 62.8853 17.44C62.8853 17.9733 62.7586 18.3867 62.5053 18.68C62.012 19.28 61.312 19.8333 60.4053 20.34C59.512 20.8467 58.552 21.1 57.5253 21.1C56.1253 21.1 55.0386 20.72 54.2653 19.96C53.492 19.2 53.1053 18.16 53.1053 16.84C53.1053 15.92 53.2986 15.0667 53.6853 14.28C54.072 13.48 54.6053 12.8467 55.2853 12.38C55.9786 11.9133 56.7586 11.68 57.6253 11.68C58.3986 11.68 59.0186 11.9133 59.4853 12.38C59.952 12.8333 60.1853 13.4533 60.1853 14.24C60.1853 15.16 59.852 15.9533 59.1853 16.62C58.532 17.2733 57.4186 17.7933 55.8453 18.18C56.1786 18.7933 56.812 19.1 57.7453 19.1C58.3453 19.1 59.0253 18.8933 59.7853 18.48C60.5586 18.0533 61.2253 17.5 61.7853 16.82C61.9453 16.6333 62.1253 16.54 62.3253 16.54ZM57.2853 13.64C56.792 13.64 56.372 13.9267 56.0253 14.5C55.692 15.0733 55.5253 15.7667 55.5253 16.58V16.62C56.312 16.4333 56.932 16.1533 57.3853 15.78C57.8386 15.4067 58.0653 14.9733 58.0653 14.48C58.0653 14.2267 57.992 14.0267 57.8453 13.88C57.712 13.72 57.5253 13.64 57.2853 13.64ZM76.9969 16.54C77.1702 16.54 77.3035 16.62 77.3969 16.78C77.5035 16.94 77.5569 17.16 77.5569 17.44C77.5569 17.9867 77.4302 18.4067 77.1769 18.7C76.5635 19.42 75.9635 20 75.3769 20.44C74.8035 20.88 74.1702 21.1 73.4769 21.1C72.7702 21.1 72.2635 20.8333 71.9569 20.3C71.6502 19.7667 71.4969 18.9933 71.4969 17.98C71.4969 17.1 71.6035 16 71.8169 14.68H71.7769C71.4435 15.2533 71.1302 15.9 70.8369 16.62C70.5435 17.34 70.2169 18.1933 69.8569 19.18L69.5169 20.08C69.3702 20.48 69.1969 20.7533 68.9969 20.9C68.7969 21.0333 68.5569 21.1 68.2769 21.1C67.9835 21.1 67.7702 21.02 67.6369 20.86C67.5035 20.7 67.3835 20.4467 67.2769 20.1C67.1569 19.7 67.0569 19.1533 66.9769 18.46C66.8969 17.7533 66.8569 17.04 66.8569 16.32C66.8569 15.88 66.8769 15.46 66.9169 15.06H66.8769C66.5435 16.3533 66.2169 17.42 65.8969 18.26C65.5769 19.0867 65.1435 19.7667 64.5969 20.3C64.0502 20.82 63.3569 21.08 62.5169 21.08C61.8102 21.08 61.2635 20.8333 60.8769 20.34C60.5035 19.8467 60.3169 19.2267 60.3169 18.48C60.3169 17.8133 60.4702 17.26 60.7769 16.82C61.0835 16.3667 61.5169 16.14 62.0769 16.14C62.6102 16.14 62.8769 16.32 62.8769 16.68C62.8769 16.7467 62.8702 16.8 62.8569 16.84C62.7502 17.48 62.6969 17.9333 62.6969 18.2C62.6969 18.6533 62.7969 18.88 62.9969 18.88C63.1835 18.88 63.3702 18.7467 63.5569 18.48C63.7435 18.2 64.0035 17.6 64.3369 16.68C64.7902 15.44 65.2169 14.1733 65.6169 12.88C65.7502 12.4667 65.9435 12.1667 66.1969 11.98C66.4635 11.78 66.8169 11.68 67.2569 11.68C67.6302 11.68 67.9369 11.7533 68.1769 11.9C68.4302 12.0467 68.5569 12.2867 68.5569 12.62C68.5569 14.5533 68.6035 16.0267 68.6969 17.04H68.7369C68.9635 16.28 69.3169 15.4067 69.7969 14.42C70.2769 13.4333 70.6569 12.7867 70.9369 12.48C71.1902 12.2133 71.4435 12.0133 71.6969 11.88C71.9635 11.7333 72.2569 11.66 72.5769 11.66C73.0569 11.66 73.3835 11.7667 73.5569 11.98C73.7302 12.18 73.8169 12.56 73.8169 13.12C73.8169 13.4267 73.8102 13.7333 73.7969 14.04C73.7835 14.3333 73.7702 14.6067 73.7569 14.86C73.7035 15.8467 73.6769 16.58 73.6769 17.06C73.6769 17.82 73.7302 18.3333 73.8369 18.6C73.9435 18.8667 74.1435 19 74.4369 19C74.9702 19 75.6435 18.3 76.4569 16.9C76.6035 16.66 76.7835 16.54 76.9969 16.54Z" fill="white"/>
<circle cx="116" cy="38" r="2" fill="#FFBF1C"/>
<path d="M57.36 27.2C57.36 28.3333 56.96 29.3133 56.16 30.14C55.36 30.9533 54.1933 31.54 52.66 31.9C53.4867 32.1267 54.1133 32.5 54.54 33.02C54.9667 33.5267 55.18 34.1133 55.18 34.78C55.18 35.8333 54.8467 36.7467 54.18 37.52C53.5267 38.2933 52.5667 38.8933 51.3 39.32C50.0333 39.7333 48.5067 39.94 46.72 39.94C46.0533 39.94 45.52 39.92 45.12 39.88C45.1067 40.2533 44.9467 40.5333 44.64 40.72C44.3333 40.9067 43.94 41 43.46 41C42.98 41 42.6467 40.8933 42.46 40.68C42.2867 40.4667 42.2133 40.1533 42.24 39.74C42.36 37.8733 42.5933 35.92 42.94 33.88C43.2867 31.8267 43.7267 29.8467 44.26 27.94C44.3533 27.6067 44.54 27.3733 44.82 27.24C45.1 27.1067 45.4667 27.04 45.92 27.04C46.7333 27.04 47.14 27.2667 47.14 27.72C47.14 27.9067 47.1 28.12 47.02 28.36C46.6733 29.4 46.3267 30.8133 45.98 32.6C45.6333 34.3733 45.3867 36.0667 45.24 37.68C45.88 37.7333 46.4 37.76 46.8 37.76C48.6667 37.76 50.0333 37.4933 50.9 36.96C51.78 36.4133 52.22 35.72 52.22 34.88C52.22 34.2933 51.9667 33.8 51.46 33.4C50.9667 33 50.1333 32.78 48.96 32.74C48.6933 32.7267 48.5067 32.66 48.4 32.54C48.2933 32.42 48.24 32.2267 48.24 31.96C48.24 31.5733 48.32 31.26 48.48 31.02C48.64 30.78 48.9333 30.6533 49.36 30.64C50.3067 30.6133 51.16 30.4733 51.92 30.22C52.6933 29.9667 53.3 29.6133 53.74 29.16C54.18 28.6933 54.4 28.1533 54.4 27.54C54.4 26.7667 54.02 26.16 53.26 25.72C52.5 25.2667 51.3333 25.04 49.76 25.04C48.3333 25.04 46.9533 25.2267 45.62 25.6C44.2867 25.96 43.1533 26.42 42.22 26.98C41.7933 27.2333 41.4333 27.36 41.14 27.36C40.9 27.36 40.7133 27.28 40.58 27.12C40.46 26.9467 40.4 26.7333 40.4 26.48C40.4 26.1467 40.4667 25.86 40.6 25.62C40.7467 25.38 41.0867 25.1067 41.62 24.8C42.74 24.16 44.0533 23.66 45.56 23.3C47.0667 22.94 48.6067 22.76 50.18 22.76C52.5933 22.76 54.3933 23.1667 55.58 23.98C56.7667 24.7933 57.36 25.8667 57.36 27.2ZM73.243 35.54C73.4163 35.54 73.5496 35.62 73.643 35.78C73.7496 35.94 73.803 36.16 73.803 36.44C73.803 36.9867 73.6763 37.4067 73.423 37.7C72.8096 38.42 72.2096 39 71.623 39.44C71.0496 39.88 70.4163 40.1 69.723 40.1C69.0163 40.1 68.5096 39.8333 68.203 39.3C67.8963 38.7667 67.743 37.9933 67.743 36.98C67.743 36.1 67.8496 35 68.063 33.68H68.023C67.6896 34.2533 67.3763 34.9 67.083 35.62C66.7896 36.34 66.463 37.1933 66.103 38.18L65.763 39.08C65.6163 39.48 65.443 39.7533 65.243 39.9C65.043 40.0333 64.803 40.1 64.523 40.1C64.2296 40.1 64.0163 40.02 63.883 39.86C63.7496 39.7 63.6296 39.4467 63.523 39.1C63.403 38.7 63.303 38.1533 63.223 37.46C63.143 36.7533 63.103 36.04 63.103 35.32C63.103 34.88 63.123 34.46 63.163 34.06H63.123C62.7896 35.3533 62.463 36.42 62.143 37.26C61.823 38.0867 61.3896 38.7667 60.843 39.3C60.2963 39.82 59.603 40.08 58.763 40.08C58.0563 40.08 57.5096 39.8333 57.123 39.34C56.7496 38.8467 56.563 38.2267 56.563 37.48C56.563 36.8133 56.7163 36.26 57.023 35.82C57.3296 35.3667 57.763 35.14 58.323 35.14C58.8563 35.14 59.123 35.32 59.123 35.68C59.123 35.7467 59.1163 35.8 59.103 35.84C58.9963 36.48 58.943 36.9333 58.943 37.2C58.943 37.6533 59.043 37.88 59.243 37.88C59.4296 37.88 59.6163 37.7467 59.803 37.48C59.9896 37.2 60.2496 36.6 60.583 35.68C61.0363 34.44 61.463 33.1733 61.863 31.88C61.9963 31.4667 62.1896 31.1667 62.443 30.98C62.7096 30.78 63.063 30.68 63.503 30.68C63.8763 30.68 64.183 30.7533 64.423 30.9C64.6763 31.0467 64.803 31.2867 64.803 31.62C64.803 33.5533 64.8496 35.0267 64.943 36.04H64.983C65.2096 35.28 65.563 34.4067 66.043 33.42C66.523 32.4333 66.903 31.7867 67.183 31.48C67.4363 31.2133 67.6896 31.0133 67.943 30.88C68.2096 30.7333 68.503 30.66 68.823 30.66C69.303 30.66 69.6296 30.7667 69.803 30.98C69.9763 31.18 70.063 31.56 70.063 32.12C70.063 32.4267 70.0563 32.7333 70.043 33.04C70.0296 33.3333 70.0163 33.6067 70.003 33.86C69.9496 34.8467 69.923 35.58 69.923 36.06C69.923 36.82 69.9763 37.3333 70.083 37.6C70.1896 37.8667 70.3896 38 70.683 38C71.2163 38 71.8896 37.3 72.703 35.9C72.8496 35.66 73.0296 35.54 73.243 35.54ZM81.1105 35.54C81.2838 35.54 81.4171 35.62 81.5105 35.78C81.6171 35.94 81.6705 36.16 81.6705 36.44C81.6705 36.9733 81.5438 37.3867 81.2905 37.68C80.7971 38.28 80.0971 38.8333 79.1905 39.34C78.2971 39.8467 77.3371 40.1 76.3105 40.1C74.9105 40.1 73.8238 39.72 73.0505 38.96C72.2771 38.2 71.8905 37.16 71.8905 35.84C71.8905 34.92 72.0838 34.0667 72.4705 33.28C72.8571 32.48 73.3905 31.8467 74.0705 31.38C74.7638 30.9133 75.5438 30.68 76.4105 30.68C77.1838 30.68 77.8038 30.9133 78.2705 31.38C78.7371 31.8333 78.9705 32.4533 78.9705 33.24C78.9705 34.16 78.6371 34.9533 77.9705 35.62C77.3171 36.2733 76.2038 36.7933 74.6305 37.18C74.9638 37.7933 75.5971 38.1 76.5305 38.1C77.1305 38.1 77.8105 37.8933 78.5705 37.48C79.3438 37.0533 80.0105 36.5 80.5705 35.82C80.7305 35.6333 80.9105 35.54 81.1105 35.54ZM76.0705 32.64C75.5771 32.64 75.1571 32.9267 74.8105 33.5C74.4771 34.0733 74.3105 34.7667 74.3105 35.58V35.62C75.0971 35.4333 75.7171 35.1533 76.1705 34.78C76.6238 34.4067 76.8505 33.9733 76.8505 33.48C76.8505 33.2267 76.7771 33.0267 76.6305 32.88C76.4971 32.72 76.3105 32.64 76.0705 32.64ZM83.862 40.1C82.5554 40.1 81.5354 39.7333 80.802 39C80.082 38.2533 79.722 37.2733 79.722 36.06C79.722 34.98 79.9354 34.0333 80.362 33.22C80.7887 32.4067 81.342 31.78 82.022 31.34C82.702 30.9 83.4154 30.68 84.162 30.68C84.8954 30.68 85.462 30.9 85.862 31.34C86.2754 31.7667 86.482 32.32 86.482 33C86.482 33.56 86.3554 34.0333 86.102 34.42C85.862 34.8067 85.542 35 85.142 35C84.8887 35 84.682 34.94 84.522 34.82C84.3754 34.7 84.302 34.5333 84.302 34.32C84.302 34.2267 84.3154 34.12 84.342 34C84.3687 33.88 84.3887 33.7933 84.402 33.74C84.4687 33.54 84.502 33.3533 84.502 33.18C84.502 33.0067 84.4554 32.8733 84.362 32.78C84.282 32.6867 84.162 32.64 84.002 32.64C83.6954 32.64 83.4087 32.78 83.142 33.06C82.8754 33.3267 82.662 33.6933 82.502 34.16C82.342 34.6267 82.262 35.14 82.262 35.7C82.262 37.2467 82.9354 38.02 84.282 38.02C84.8287 38.02 85.4154 37.84 86.042 37.48C86.682 37.1067 87.3087 36.5533 87.922 35.82C88.082 35.6333 88.262 35.54 88.462 35.54C88.6354 35.54 88.7687 35.62 88.862 35.78C88.9687 35.94 89.022 36.16 89.022 36.44C89.022 36.9467 88.8954 37.36 88.642 37.68C88.0154 38.4533 87.262 39.0533 86.382 39.48C85.5154 39.8933 84.6754 40.1 83.862 40.1ZM88.8253 40.1C88.3186 40.1 87.9586 39.8333 87.7453 39.3C87.5453 38.7667 87.4453 37.9133 87.4453 36.74C87.4453 35.0067 87.692 33.36 88.1853 31.8C88.3053 31.4133 88.4986 31.1333 88.7653 30.96C89.0453 30.7733 89.432 30.68 89.9253 30.68C90.192 30.68 90.3786 30.7133 90.4853 30.78C90.592 30.8467 90.6453 30.9733 90.6453 31.16C90.6453 31.3733 90.5453 31.8533 90.3453 32.6C90.212 33.1333 90.1053 33.6 90.0253 34C89.9453 34.3867 89.8786 34.8733 89.8253 35.46C90.1853 34.42 90.612 33.54 91.1053 32.82C91.612 32.1 92.1253 31.5667 92.6453 31.22C93.1786 30.86 93.6786 30.68 94.1453 30.68C94.612 30.68 94.9386 30.7867 95.1253 31C95.3253 31.2133 95.4253 31.54 95.4253 31.98C95.4253 32.4067 95.2986 33.18 95.0453 34.3C94.9386 34.78 94.8653 35.14 94.8253 35.38C95.492 33.74 96.232 32.5467 97.0453 31.8C97.8586 31.0533 98.6186 30.68 99.3253 30.68C100.192 30.68 100.625 31.1133 100.625 31.98C100.625 32.5 100.479 33.44 100.185 34.8C99.932 35.96 99.8053 36.7267 99.8053 37.1C99.8053 37.6333 99.9986 37.9 100.385 37.9C100.652 37.9 100.965 37.74 101.325 37.42C101.699 37.0867 102.192 36.5533 102.805 35.82C102.965 35.6333 103.145 35.54 103.345 35.54C103.519 35.54 103.652 35.62 103.745 35.78C103.852 35.94 103.905 36.16 103.905 36.44C103.905 36.9733 103.779 37.3867 103.525 37.68C102.952 38.3867 102.332 38.9667 101.665 39.42C101.012 39.8733 100.265 40.1 99.4253 40.1C98.7453 40.1 98.232 39.9067 97.8853 39.52C97.5386 39.12 97.3653 38.5467 97.3653 37.8C97.3653 37.4267 97.4586 36.76 97.6453 35.8C97.8186 34.96 97.9053 34.38 97.9053 34.06C97.9053 33.8467 97.832 33.74 97.6853 33.74C97.512 33.74 97.2653 33.9667 96.9453 34.42C96.6253 34.86 96.3053 35.4467 95.9853 36.18C95.6653 36.9133 95.4053 37.6867 95.2053 38.5C95.0586 39.14 94.8853 39.5667 94.6853 39.78C94.4986 39.9933 94.192 40.1 93.7653 40.1C93.3253 40.1 92.992 39.8933 92.7653 39.48C92.552 39.0533 92.4453 38.54 92.4453 37.94C92.4453 37.4333 92.512 36.7 92.6453 35.74C92.752 34.8867 92.8053 34.3267 92.8053 34.06C92.8053 33.8467 92.732 33.74 92.5853 33.74C92.3853 33.74 92.132 33.98 91.8253 34.46C91.5186 34.94 91.2186 35.5533 90.9253 36.3C90.6453 37.0467 90.4186 37.78 90.2453 38.5C90.0986 39.1267 89.9253 39.5533 89.7253 39.78C89.5386 39.9933 89.2386 40.1 88.8253 40.1ZM111.208 35.54C111.381 35.54 111.515 35.62 111.608 35.78C111.715 35.94 111.768 36.16 111.768 36.44C111.768 36.9733 111.641 37.3867 111.388 37.68C110.895 38.28 110.195 38.8333 109.288 39.34C108.395 39.8467 107.435 40.1 106.408 40.1C105.008 40.1 103.921 39.72 103.148 38.96C102.375 38.2 101.988 37.16 101.988 35.84C101.988 34.92 102.181 34.0667 102.568 33.28C102.955 32.48 103.488 31.8467 104.168 31.38C104.861 30.9133 105.641 30.68 106.508 30.68C107.281 30.68 107.901 30.9133 108.368 31.38C108.835 31.8333 109.068 32.4533 109.068 33.24C109.068 34.16 108.735 34.9533 108.068 35.62C107.415 36.2733 106.301 36.7933 104.728 37.18C105.061 37.7933 105.695 38.1 106.628 38.1C107.228 38.1 107.908 37.8933 108.668 37.48C109.441 37.0533 110.108 36.5 110.668 35.82C110.828 35.6333 111.008 35.54 111.208 35.54ZM106.168 32.64C105.675 32.64 105.255 32.9267 104.908 33.5C104.575 34.0733 104.408 34.7667 104.408 35.58V35.62C105.195 35.4333 105.815 35.1533 106.268 34.78C106.721 34.4067 106.948 33.9733 106.948 33.48C106.948 33.2267 106.875 33.0267 106.728 32.88C106.595 32.72 106.408 32.64 106.168 32.64Z" fill="white"/>
</svg>
