<svg width="20" height="21" viewBox="0 0 20 21" fill="none" xmlns="http://www.w3.org/2000/svg">
<g clip-path="url(#clip0)">
<path d="M20 4.39874C19.2563 4.72499 18.4637 4.94124 17.6375 5.04624C18.4875 4.53874 19.1363 3.74124 19.4412 2.77999C18.6488 3.25249 17.7738 3.58624 16.8412 3.77249C16.0887 2.97124 15.0162 2.47499 13.8462 2.47499C11.5763 2.47499 9.74875 4.31749 9.74875 6.57624C9.74875 6.90124 9.77625 7.21374 9.84375 7.51124C6.435 7.34499 3.41875 5.71124 1.3925 3.22249C1.03875 3.83624 0.83125 4.53874 0.83125 5.29499C0.83125 6.71499 1.5625 7.97374 2.6525 8.70249C1.99375 8.68999 1.3475 8.49874 0.8 8.19749C0.8 8.20999 0.8 8.22624 0.8 8.24249C0.8 10.235 2.22125 11.89 4.085 12.2712C3.75125 12.3625 3.3875 12.4062 3.01 12.4062C2.7475 12.4062 2.4825 12.3912 2.23375 12.3362C2.765 13.96 4.2725 15.1537 6.065 15.1925C4.67 16.2837 2.89875 16.9412 0.98125 16.9412C0.645 16.9412 0.3225 16.9262 0 16.885C1.81625 18.0562 3.96875 18.725 6.29 18.725C13.835 18.725 17.96 12.475 17.96 7.05749C17.96 6.87624 17.9538 6.70124 17.945 6.52749C18.7588 5.94999 19.4425 5.22874 20 4.39874Z" fill="white" fill-opacity="0.7"/>
</g>
<defs>
<clipPath id="clip0">
<rect width="20" height="20" fill="white" transform="translate(0 0.599991)"/>
</clipPath>
</defs>
</svg>
