<svg width="20" height="20" viewBox="0 0 20 20" fill="none" xmlns="http://www.w3.org/2000/svg">
<path d="M18.9789 5.31353C18.7628 4.51027 18.1295 3.87707 17.3263 3.66078C15.8591 3.25932 9.98999 3.25932 9.98999 3.25932C9.98999 3.25932 4.12112 3.25932 2.65387 3.64556C1.86617 3.86162 1.21741 4.51039 1.00134 5.31353C0.615219 6.78066 0.615219 9.8233 0.615219 9.8233C0.615219 9.8233 0.615219 12.8813 1.00134 14.3331C1.21764 15.1362 1.85072 15.7694 2.65398 15.9857C4.13657 16.3873 9.99022 16.3873 9.99022 16.3873C9.99022 16.3873 15.8591 16.3873 17.3263 16.001C18.1296 15.7849 18.7628 15.1517 18.9791 14.3485C19.3651 12.8813 19.3651 9.83875 19.3651 9.83875C19.3651 9.83875 19.3806 6.78066 18.9789 5.31353ZM8.1214 12.6342V7.01241L13.0018 9.8233L8.1214 12.6342Z" fill="white" fill-opacity="0.7"/>
</svg>
