<svg width="39" height="39" viewBox="0 0 39 39" fill="none" xmlns="http://www.w3.org/2000/svg">
<g clip-path="url(#clip0)">
<path d="M38.9611 11.4661C38.8697 9.39389 38.5346 7.96925 38.0546 6.73479C37.5593 5.42444 36.7975 4.25128 35.7993 3.27603C34.8241 2.2856 33.6432 1.516 32.348 1.02852C31.1064 0.548485 29.6892 0.213382 27.617 0.122018C25.5293 0.0229155 24.8665 0 19.5715 0C14.2766 0 13.6138 0.0229155 11.5338 0.11428C9.46163 0.205645 8.037 0.541045 6.80283 1.02078C5.49218 1.516 4.31903 2.27786 3.34378 3.27603C2.35335 4.25128 1.58404 5.43218 1.09627 6.72735C0.616234 7.96925 0.281131 9.38615 0.189767 11.4584C0.0906645 13.5461 0.067749 14.2088 0.067749 19.5038C0.067749 24.7988 0.0906645 25.4616 0.182029 27.5415C0.273394 29.6137 0.608794 31.0384 1.08883 32.2728C1.58404 33.5832 2.35335 34.7563 3.34378 35.7316C4.31903 36.722 5.49992 37.4916 6.79509 37.9791C8.037 38.4591 9.45389 38.7942 11.5264 38.8856C13.6061 38.9773 14.2691 38.9999 19.5641 38.9999C24.8591 38.9999 25.5218 38.9773 27.6018 38.8856C29.674 38.7942 31.0987 38.4591 32.3328 37.9791C34.9538 36.9658 37.026 34.8935 38.0394 32.2728C38.5191 31.0309 38.8545 29.6137 38.9459 27.5415C39.0373 25.4616 39.0602 24.7988 39.0602 19.5038C39.0602 14.2088 39.0524 13.5461 38.9611 11.4661ZM35.449 27.3891C35.3651 29.2938 35.0452 30.3223 34.7785 31.008C34.1232 32.707 32.7748 34.0555 31.0757 34.7108C30.3901 34.9775 29.3541 35.2974 27.4569 35.381C25.3998 35.4727 24.7829 35.4953 19.5793 35.4953C14.3757 35.4953 13.751 35.4727 11.7014 35.381C9.79673 35.2974 8.76821 34.9775 8.08253 34.7108C7.23704 34.3983 6.46743 33.9031 5.84276 33.2555C5.19517 32.6231 4.69996 31.8612 4.38748 31.0157C4.12082 30.3301 3.8009 29.2938 3.71727 27.3969C3.62561 25.3398 3.60299 24.7226 3.60299 19.519C3.60299 14.3154 3.62561 13.6907 3.71727 11.6414C3.8009 9.73673 4.12082 8.70821 4.38748 8.02252C4.69996 7.17673 5.19517 6.40742 5.8505 5.78246C6.48261 5.13487 7.24448 4.63965 8.09027 4.32747C8.77595 4.06081 9.81221 3.74089 11.7091 3.65696C13.7662 3.5656 14.3834 3.54268 19.5867 3.54268C24.7981 3.54268 25.415 3.5656 27.4646 3.65696C29.3693 3.74089 30.3978 4.06081 31.0835 4.32747C31.929 4.63965 32.6986 5.13487 33.3232 5.78246C33.9708 6.41487 34.466 7.17673 34.7785 8.02252C35.0452 8.70821 35.3651 9.74417 35.449 11.6414C35.5404 13.6984 35.5633 14.3154 35.5633 19.519C35.5633 24.7226 35.5404 25.3321 35.449 27.3891Z" fill="#6F6F6F"/>
<path d="M19.5723 9.48523C14.0413 9.48523 9.55377 13.9725 9.55377 19.5038C9.55377 25.0351 14.0413 29.5223 19.5723 29.5223C25.1036 29.5223 29.5909 25.0351 29.5909 19.5038C29.5909 13.9725 25.1036 9.48523 19.5723 9.48523ZM19.5723 26.0026C15.9841 26.0026 13.0735 23.0923 13.0735 19.5038C13.0735 15.9153 15.9841 13.005 19.5723 13.005C23.1608 13.005 26.0711 15.9153 26.0711 19.5038C26.0711 23.0923 23.1608 26.0026 19.5723 26.0026Z" fill="#6F6F6F"/>
<path d="M32.3262 9.08912C32.3262 10.3807 31.2789 11.428 29.987 11.428C28.6954 11.428 27.6481 10.3807 27.6481 9.08912C27.6481 7.79722 28.6954 6.75024 29.987 6.75024C31.2789 6.75024 32.3262 7.79722 32.3262 9.08912Z" fill="#6F6F6F"/>
</g>
<defs>
<clipPath id="clip0">
<rect width="39" height="39" fill="white"/>
</clipPath>
</defs>
</svg>
