<svg width="177" height="65" viewBox="0 0 177 65" fill="none" xmlns="http://www.w3.org/2000/svg">
<path d="M31.5969 22.0947C30.7345 24.9027 29.5611 27.119 28.0769 28.7436C26.5927 30.3481 24.928 31.1504 23.0827 31.1504C21.6787 31.1504 20.6358 30.7493 19.9538 29.947C19.292 29.1447 18.961 28.0416 18.961 26.6376C18.961 25.735 19.1014 24.7021 19.3822 23.5388H19.3221C18.1587 26.066 16.9052 27.9714 15.5614 29.255C14.2376 30.5186 12.633 31.1504 10.7477 31.1504C9.06291 31.1504 7.8294 30.6891 7.04718 29.7665C6.26496 28.8439 5.87385 27.5903 5.87385 26.0058C5.87385 25.1233 6.00422 24.0503 6.26496 22.7867L8.13026 14.1822C8.17037 14.0218 8.26063 13.5805 8.40103 12.8585C8.56148 12.1364 8.64171 11.3542 8.64171 10.5118C8.64171 10.0304 8.54142 9.6694 8.34086 9.42872C8.16034 9.18803 7.90963 9.06769 7.58872 9.06769C6.98701 9.06769 6.28501 9.35852 5.48274 9.94017C4.68046 10.5018 3.83806 11.3742 2.95556 12.5576C2.67476 12.9387 2.36387 13.1292 2.02291 13.1292C1.74211 13.1292 1.4914 12.9989 1.27077 12.7381C1.0702 12.4573 0.969915 12.1464 0.969915 11.8055C0.969915 11.1837 1.25071 10.4817 1.81231 9.69949C3.85812 6.89151 6.25493 5.48752 9.00274 5.48752C10.2262 5.48752 11.1789 5.85857 11.8609 6.60068C12.5628 7.34279 12.9138 8.4359 12.9138 9.88C12.9138 10.9029 12.8436 11.8456 12.7032 12.708C12.5628 13.5705 12.3222 14.7438 11.9812 16.228L10.7477 21.7337C10.7076 21.9142 10.6374 22.2351 10.5371 22.6964C10.4368 23.1577 10.3566 23.599 10.2964 24.0202C10.2362 24.4213 10.2062 24.8224 10.2062 25.2236C10.2062 25.8654 10.3867 26.3769 10.7477 26.7579C11.1087 27.139 11.6202 27.3296 12.2821 27.3296C13.2849 27.3296 14.3579 26.6877 15.5012 25.4041C16.6645 24.1004 17.7576 22.0145 18.7805 19.1463C19.8235 16.2782 20.6358 12.6378 21.2174 8.2253C21.3578 7.20239 21.5584 6.49037 21.8191 6.08923C22.0999 5.68809 22.6315 5.48752 23.4137 5.48752C24.1157 5.48752 24.6372 5.69812 24.9781 6.11932C25.3191 6.54051 25.4896 7.22245 25.4896 8.16513C25.4896 8.88718 25.3692 9.8098 25.1285 10.933C24.8879 12.0562 24.5268 13.5705 24.0455 15.4759C23.4839 17.7624 23.0527 19.6377 22.7518 21.1019C22.4509 22.546 22.3005 23.8196 22.3005 24.9227C22.3005 25.6849 22.471 26.2766 22.812 26.6978C23.173 27.119 23.6945 27.3296 24.3764 27.3296C25.3793 27.3296 26.4523 26.6877 27.5956 25.4041C28.7589 24.1004 29.852 22.0145 30.8749 19.1463C31.9178 16.2782 32.7301 12.6378 33.3118 8.2253C33.4522 7.20239 33.6528 6.49037 33.9135 6.08923C34.1943 5.68809 34.7258 5.48752 35.508 5.48752C36.21 5.48752 36.7315 5.69812 37.0725 6.11932C37.4134 6.54051 37.5839 7.22245 37.5839 8.16513C37.5839 8.72672 37.4937 9.61926 37.3132 10.8427C37.1527 12.0662 36.9521 13.39 36.7115 14.814C36.2501 17.3613 35.849 19.9085 35.508 22.4557C35.3476 23.619 35.2674 24.4815 35.2674 25.0431C35.2674 25.8654 35.4479 26.4972 35.8089 26.9385C36.19 27.3597 36.6914 27.5703 37.3132 27.5703C37.975 27.5703 38.6169 27.3496 39.2386 26.9084C39.8805 26.4671 40.6326 25.735 41.495 24.7121C41.7357 24.4313 42.0065 24.2909 42.3074 24.2909C42.5681 24.2909 42.7687 24.4113 42.9091 24.652C43.0695 24.8926 43.1497 25.2236 43.1497 25.6448C43.1497 26.427 42.9592 27.0488 42.5781 27.5101C41.5552 28.7737 40.5323 29.6963 39.5094 30.2779C38.4865 30.8596 37.4034 31.1504 36.2602 31.1504C34.5954 31.1504 33.3319 30.7292 32.4694 29.8868C31.627 29.0244 31.2058 27.9112 31.2058 26.5474C31.2058 25.384 31.3362 23.8998 31.5969 22.0947ZM44.4272 31.1504C43.1837 31.1504 42.1908 30.6991 41.4487 29.7966C40.7066 28.894 40.3356 27.7107 40.3356 26.2465C40.3356 24.6419 40.7066 23.1276 41.4487 21.7036C42.1908 20.2595 43.1736 19.1062 44.3971 18.2438C45.6406 17.3613 46.9544 16.92 48.3383 16.92C48.7796 16.92 49.0704 17.0103 49.2108 17.1908C49.3712 17.3512 49.5016 17.6521 49.6019 18.0933C50.0231 18.0131 50.4644 17.973 50.9257 17.973C51.9085 17.973 52.3999 18.324 52.3999 19.026C52.3999 19.4472 52.2494 20.45 51.9486 22.0345C51.4873 24.3411 51.2566 25.9456 51.2566 26.8482C51.2566 27.1491 51.3268 27.3897 51.4672 27.5703C51.6277 27.7508 51.8282 27.841 52.0689 27.841C52.45 27.841 52.9113 27.6003 53.4528 27.119C53.9944 26.6175 54.7265 25.8153 55.6491 24.7121C55.8898 24.4313 56.1605 24.2909 56.4614 24.2909C56.7221 24.2909 56.9227 24.4113 57.0631 24.652C57.2236 24.8926 57.3038 25.2236 57.3038 25.6448C57.3038 26.4471 57.1132 27.0688 56.7322 27.5101C55.9098 28.533 55.0373 29.3954 54.1147 30.0974C53.1921 30.7994 52.2996 31.1504 51.4371 31.1504C50.7752 31.1504 50.1635 30.9298 49.6019 30.4885C49.0604 30.0272 48.6492 29.4055 48.3684 28.6232C47.3254 30.308 46.0117 31.1504 44.4272 31.1504ZM45.5103 28.1118C45.9515 28.1118 46.3727 27.8511 46.7739 27.3296C47.175 26.8081 47.4658 26.1161 47.6463 25.2537L48.7595 19.7179C47.9171 19.738 47.1349 20.0589 46.4128 20.6807C45.7108 21.2824 45.1493 22.0847 44.7281 23.0875C44.3069 24.0904 44.0963 25.1534 44.0963 26.2766C44.0963 26.8983 44.2166 27.3597 44.4573 27.6605C44.718 27.9614 45.069 28.1118 45.5103 28.1118ZM59.4156 16.7094C60.9199 16.7094 62.0531 16.9802 62.8153 17.5217C63.5975 18.0432 63.9886 18.8054 63.9886 19.8082C63.9886 20.6707 63.8081 21.3927 63.4471 21.9744C63.0861 22.556 62.6548 23.0173 62.1534 23.3583C61.652 23.6993 61.0001 24.0703 60.1979 24.4715C59.3354 24.9127 58.7036 25.2938 58.3025 25.6147C57.9013 25.9356 57.7008 26.3668 57.7008 26.9084C57.7008 27.3496 57.8612 27.6605 58.1821 27.841C58.503 28.0215 59.0646 28.1118 59.8669 28.1118C61.0503 28.1118 62.2236 27.821 63.3869 27.2393C64.5703 26.6376 65.6132 25.7952 66.5158 24.7121C66.7364 24.4313 67.0072 24.2909 67.3281 24.2909C67.5889 24.2909 67.7894 24.4113 67.9298 24.652C68.0903 24.8926 68.1705 25.2236 68.1705 25.6448C68.1705 26.3869 67.98 27.0087 67.5989 27.5101C66.6362 28.7937 65.4628 29.7765 64.0789 30.4585C62.695 31.1203 61.1606 31.4513 59.4758 31.4513C57.7108 31.4513 56.3469 31.1504 55.3842 30.5487C54.4215 29.927 53.9401 28.9341 53.9401 27.5703C53.9401 26.7078 54.1206 25.9757 54.4816 25.374C54.8627 24.7523 55.314 24.2508 55.8355 23.8697C56.377 23.4686 57.0489 23.0574 57.8512 22.6362C58.6735 22.195 59.2752 21.8139 59.6563 21.493C60.0374 21.152 60.2279 20.7509 60.2279 20.2896C60.2279 20.0288 60.1176 19.8283 59.897 19.6879C59.6764 19.5274 59.3555 19.4472 58.9343 19.4472C58.5532 19.4472 58.2122 19.5074 57.9114 19.6277C57.6105 19.728 57.2796 19.8784 56.9185 20.079C56.718 20.1793 56.5074 20.2795 56.2868 20.3798C56.0862 20.4601 55.8956 20.5002 55.7151 20.5002C55.334 20.5002 55.0332 20.3798 54.8126 20.1391C54.612 19.8784 54.5117 19.5475 54.5117 19.1463C54.5117 18.6048 54.7624 18.1435 55.2638 17.7624C55.665 17.4615 56.2567 17.2108 57.0389 17.0103C57.8211 16.8097 58.6134 16.7094 59.4156 16.7094ZM69.4005 31.1504C68.157 31.1504 67.1641 30.6991 66.422 29.7966C65.6799 28.894 65.3089 27.7107 65.3089 26.2465C65.3089 24.6419 65.6799 23.1276 66.422 21.7036C67.1641 20.2595 68.1469 19.1062 69.3704 18.2438C70.6139 17.3613 71.9277 16.92 73.3116 16.92C73.7529 16.92 74.0437 17.0103 74.1841 17.1908C74.3445 17.3512 74.4749 17.6521 74.5752 18.0933C74.9964 18.0131 75.4376 17.973 75.899 17.973C76.8817 17.973 77.3731 18.324 77.3731 19.026C77.3731 19.4472 77.2227 20.45 76.9219 22.0345C76.4605 24.3411 76.2299 25.9456 76.2299 26.8482C76.2299 27.1491 76.3001 27.3897 76.4405 27.5703C76.6009 27.7508 76.8015 27.841 77.0422 27.841C77.4233 27.841 77.8846 27.6003 78.4261 27.119C78.9677 26.6175 79.6998 25.8153 80.6224 24.7121C80.8631 24.4313 81.1338 24.2909 81.4347 24.2909C81.6954 24.2909 81.896 24.4113 82.0364 24.652C82.1968 24.8926 82.2771 25.2236 82.2771 25.6448C82.2771 26.4471 82.0865 27.0688 81.7054 27.5101C80.8831 28.533 80.0106 29.3954 79.088 30.0974C78.1654 30.7994 77.2729 31.1504 76.4104 31.1504C75.7485 31.1504 75.1368 30.9298 74.5752 30.4885C74.0337 30.0272 73.6225 29.4055 73.3417 28.6232C72.2987 30.308 70.985 31.1504 69.4005 31.1504ZM70.4836 28.1118C70.9248 28.1118 71.346 27.8511 71.7472 27.3296C72.1483 26.8081 72.4391 26.1161 72.6196 25.2537L73.7328 19.7179C72.8904 19.738 72.1082 20.0589 71.3861 20.6807C70.6841 21.2824 70.1225 22.0847 69.7013 23.0875C69.2801 24.0904 69.0696 25.1534 69.0696 26.2766C69.0696 26.8983 69.1899 27.3597 69.4306 27.6605C69.6913 27.9614 70.0423 28.1118 70.4836 28.1118ZM93.25 24.2909C93.5108 24.2909 93.7114 24.4113 93.8517 24.652C94.0122 24.8926 94.0924 25.2236 94.0924 25.6448C94.0924 26.4471 93.9019 27.0688 93.5208 27.5101C92.7787 28.4126 91.7257 29.245 90.3618 30.0072C89.018 30.7693 87.5739 31.1504 86.0295 31.1504C83.9235 31.1504 82.2889 30.5788 81.1256 29.4356C79.9623 28.2923 79.3806 26.7279 79.3806 24.7422C79.3806 23.3583 79.6715 22.0746 80.2531 20.8913C80.8348 19.6879 81.637 18.7352 82.66 18.0332C83.7029 17.3312 84.8763 16.9802 86.18 16.9802C87.3433 16.9802 88.2759 17.3312 88.9779 18.0332C89.6799 18.7151 90.0309 19.6477 90.0309 20.8311C90.0309 22.215 89.5295 23.4084 88.5266 24.4113C87.5438 25.3941 85.8691 26.1763 83.5023 26.7579C84.0038 27.6806 84.9565 28.1419 86.3605 28.1419C87.263 28.1419 88.2859 27.831 89.4292 27.2092C90.5925 26.5674 91.5953 25.735 92.4377 24.7121C92.6784 24.4313 92.9492 24.2909 93.25 24.2909ZM85.6685 19.9285C84.9264 19.9285 84.2946 20.3598 83.7731 21.2222C83.2717 22.0847 83.021 23.1276 83.021 24.3511V24.4113C84.2043 24.1305 85.137 23.7093 85.8189 23.1477C86.5009 22.5861 86.8418 21.9342 86.8418 21.1921C86.8418 20.8111 86.7315 20.5102 86.5109 20.2896C86.3103 20.0489 86.0295 19.9285 85.6685 19.9285ZM115.32 24.2909C115.581 24.2909 115.781 24.4113 115.922 24.652C116.082 24.8926 116.162 25.2236 116.162 25.6448C116.162 26.4671 115.972 27.0989 115.591 27.5402C114.668 28.6232 113.766 29.4957 112.883 30.1576C112.021 30.8195 111.068 31.1504 110.025 31.1504C108.962 31.1504 108.2 30.7493 107.739 29.947C107.277 29.1447 107.047 27.9814 107.047 26.4571C107.047 25.1333 107.207 23.4786 107.528 21.493H107.468C106.966 22.3554 106.495 23.3282 106.054 24.4113C105.613 25.4944 105.121 26.778 104.58 28.2622L104.068 29.6161C103.847 30.2178 103.587 30.6289 103.286 30.8496C102.985 31.0501 102.624 31.1504 102.203 31.1504C101.762 31.1504 101.441 31.0301 101.24 30.7894C101.04 30.5487 100.859 30.1676 100.699 29.6462C100.518 29.0444 100.368 28.2221 100.247 27.1791C100.127 26.1161 100.067 25.0431 100.067 23.96C100.067 23.2981 100.097 22.6663 100.157 22.0646H100.097C99.5954 24.0101 99.104 25.6147 98.6226 26.8783C98.1413 28.1218 97.4894 29.1447 96.6671 29.947C95.8448 30.7292 94.8018 31.1203 93.5382 31.1203C92.4752 31.1203 91.6528 30.7493 91.0712 30.0072C90.5096 29.2651 90.2288 28.3324 90.2288 27.2092C90.2288 26.2064 90.4595 25.374 90.9208 24.7121C91.3821 24.0302 92.0339 23.6892 92.8763 23.6892C93.6786 23.6892 94.0797 23.96 94.0797 24.5015C94.0797 24.6018 94.0697 24.6821 94.0497 24.7422C93.8892 25.705 93.809 26.3869 93.809 26.788C93.809 27.47 93.9594 27.8109 94.2603 27.8109C94.5411 27.8109 94.8218 27.6104 95.1026 27.2092C95.3834 26.788 95.7746 25.8855 96.276 24.5015C96.9579 22.6362 97.5997 20.7308 98.2015 18.7853C98.402 18.1635 98.6928 17.7123 99.0739 17.4315C99.4751 17.1306 100.007 16.9802 100.668 16.9802C101.23 16.9802 101.691 17.0905 102.052 17.3111C102.433 17.5317 102.624 17.8928 102.624 18.3942C102.624 21.3024 102.694 23.5187 102.835 25.0431H102.895C103.236 23.8998 103.767 22.5861 104.489 21.1019C105.211 19.6177 105.783 18.6449 106.204 18.1836C106.585 17.7824 106.966 17.4816 107.347 17.281C107.749 17.0604 108.19 16.9501 108.671 16.9501C109.393 16.9501 109.885 17.1105 110.145 17.4315C110.406 17.7323 110.536 18.3039 110.536 19.1463C110.536 19.6076 110.526 20.0689 110.506 20.5303C110.486 20.9715 110.466 21.3827 110.446 21.7638C110.366 23.248 110.326 24.3511 110.326 25.0732C110.326 26.2164 110.406 26.9886 110.567 27.3897C110.727 27.7909 111.028 27.9915 111.469 27.9915C112.271 27.9915 113.284 26.9385 114.508 24.8325C114.728 24.4715 114.999 24.2909 115.32 24.2909Z" fill="black"/>
<circle cx="173.991" cy="57.1624" r="3.00855" fill="#FFBF1C"/>
<path d="M85.7809 40.3265C85.7809 42.0313 85.1791 43.5055 83.9757 44.749C82.7723 45.9725 81.0173 46.855 78.7108 47.3966C79.9543 47.7375 80.897 48.2991 81.5388 49.0813C82.1806 49.8435 82.5015 50.726 82.5015 51.7289C82.5015 53.3134 82.0001 54.6873 80.9973 55.8506C80.0145 57.0139 78.5704 57.9164 76.665 58.5583C74.7595 59.18 72.463 59.4909 69.7754 59.4909C68.7725 59.4909 67.9703 59.4608 67.3685 59.4007C67.3485 59.9623 67.1078 60.3835 66.6465 60.6643C66.1852 60.9451 65.5935 61.0855 64.8715 61.0855C64.1494 61.0855 63.648 60.925 63.3672 60.6041C63.1064 60.2832 62.9961 59.8118 63.0362 59.1901C63.2168 56.3821 63.5678 53.4437 64.0892 50.375C64.6107 47.2862 65.2726 44.3078 66.0749 41.4396C66.2153 40.9382 66.4961 40.5872 66.9173 40.3866C67.3385 40.1861 67.89 40.0858 68.572 40.0858C69.7954 40.0858 70.4072 40.4268 70.4072 41.1087C70.4072 41.3895 70.347 41.7104 70.2267 42.0714C69.7052 43.6359 69.1837 45.7619 68.6622 48.4496C68.1407 51.1171 67.7697 53.6644 67.5491 56.0913C68.5118 56.1715 69.294 56.2116 69.8957 56.2116C72.7037 56.2116 74.7595 55.8105 76.0632 55.0082C77.387 54.1858 78.0489 53.1429 78.0489 51.8793C78.0489 50.9968 77.6678 50.2547 76.9056 49.653C76.1635 49.0513 74.91 48.7203 73.145 48.6602C72.7438 48.6401 72.463 48.5398 72.3026 48.3593C72.1421 48.1788 72.0619 47.888 72.0619 47.4868C72.0619 46.9052 72.1822 46.4338 72.4229 46.0728C72.6636 45.7118 73.1048 45.5212 73.7467 45.5012C75.1707 45.4611 76.4544 45.2505 77.5976 44.8694C78.7609 44.4883 79.6735 43.9568 80.3354 43.2749C80.9973 42.5729 81.3282 41.7605 81.3282 40.8379C81.3282 39.6746 80.7566 38.762 79.6133 38.1001C78.4701 37.4182 76.7151 37.0772 74.3484 37.0772C72.2023 37.0772 70.1264 37.358 68.1207 37.9196C66.115 38.4612 64.4101 39.1531 63.0062 39.9955C62.3643 40.3766 61.8228 40.5672 61.3815 40.5672C61.0205 40.5672 60.7397 40.4468 60.5391 40.2061C60.3586 39.9454 60.2684 39.6245 60.2684 39.2434C60.2684 38.742 60.3687 38.3107 60.5692 37.9497C60.7899 37.5887 61.3013 37.1775 62.1036 36.7162C63.7884 35.7535 65.764 35.0013 68.0304 34.4598C70.2969 33.9183 72.6134 33.6475 74.9802 33.6475C78.6105 33.6475 81.3182 34.2592 83.1033 35.4827C84.8883 36.7062 85.7809 38.3208 85.7809 40.3265ZM109.673 52.8721C109.934 52.8721 110.134 52.9925 110.275 53.2331C110.435 53.4738 110.516 53.8048 110.516 54.226C110.516 55.0483 110.325 55.6801 109.944 56.1213C109.021 57.2044 108.119 58.0769 107.236 58.7388C106.374 59.4007 105.421 59.7316 104.378 59.7316C103.315 59.7316 102.553 59.3305 102.092 58.5282C101.63 57.7259 101.4 56.5626 101.4 55.0383C101.4 53.7145 101.56 52.0598 101.881 50.0742H101.821C101.319 50.9366 100.848 51.9094 100.407 52.9925C99.9656 54.0755 99.4742 55.3592 98.9327 56.8434L98.4212 58.1972C98.2006 58.799 97.9399 59.2101 97.639 59.4307C97.3381 59.6313 96.9771 59.7316 96.5559 59.7316C96.1147 59.7316 95.7938 59.6113 95.5932 59.3706C95.3926 59.1299 95.2121 58.7488 95.0516 58.2273C94.8711 57.6256 94.7207 56.8033 94.6004 55.7603C94.48 54.6973 94.4199 53.6243 94.4199 52.5412C94.4199 51.8793 94.4499 51.2475 94.5101 50.6458H94.4499C93.9485 52.5913 93.4571 54.1959 92.9757 55.4595C92.4944 56.703 91.8425 57.7259 91.0202 58.5282C90.1979 59.3104 89.1549 59.7015 87.8913 59.7015C86.8283 59.7015 86.0059 59.3305 85.4243 58.5884C84.8627 57.8462 84.5819 56.9136 84.5819 55.7904C84.5819 54.7876 84.8126 53.9552 85.2739 53.2933C85.7352 52.6114 86.387 52.2704 87.2294 52.2704C88.0317 52.2704 88.4328 52.5412 88.4328 53.0827C88.4328 53.183 88.4228 53.2632 88.4028 53.3234C88.2423 54.2861 88.1621 54.9681 88.1621 55.3692C88.1621 56.0511 88.3125 56.3921 88.6134 56.3921C88.8942 56.3921 89.175 56.1915 89.4557 55.7904C89.7365 55.3692 90.1277 54.4666 90.6291 53.0827C91.311 51.2174 91.9528 49.312 92.5546 47.3665C92.7551 46.7447 93.0459 46.2934 93.427 46.0126C93.8282 45.7118 94.3597 45.5613 95.0216 45.5613C95.5832 45.5613 96.0445 45.6717 96.4055 45.8923C96.7866 46.1129 96.9771 46.4739 96.9771 46.9754C96.9771 49.8836 97.0473 52.0999 97.1877 53.6243H97.2479C97.5889 52.481 98.1204 51.1673 98.8424 49.6831C99.5645 48.1988 100.136 47.2261 100.557 46.7648C100.938 46.3636 101.319 46.0628 101.701 45.8622C102.102 45.6416 102.543 45.5313 103.024 45.5313C103.746 45.5313 104.238 45.6917 104.498 46.0126C104.759 46.3135 104.89 46.8851 104.89 47.7275C104.89 48.1888 104.88 48.6501 104.86 49.1114C104.839 49.5527 104.819 49.9639 104.799 50.3449C104.719 51.8292 104.679 52.9323 104.679 53.6543C104.679 54.7976 104.759 55.5698 104.92 55.9709C105.08 56.3721 105.381 56.5726 105.822 56.5726C106.625 56.5726 107.637 55.5196 108.861 53.4137C109.082 53.0526 109.352 52.8721 109.673 52.8721ZM121.508 52.8721C121.769 52.8721 121.969 52.9925 122.11 53.2331C122.27 53.4738 122.35 53.8048 122.35 54.226C122.35 55.0282 122.16 55.65 121.779 56.0913C121.037 56.9938 119.984 57.8262 118.62 58.5884C117.276 59.3505 115.832 59.7316 114.288 59.7316C112.182 59.7316 110.547 59.16 109.384 58.0167C108.22 56.8735 107.639 55.309 107.639 53.3234C107.639 51.9395 107.929 50.6558 108.511 49.4725C109.093 48.269 109.895 47.3163 110.918 46.6143C111.961 45.9123 113.134 45.5613 114.438 45.5613C115.601 45.5613 116.534 45.9123 117.236 46.6143C117.938 47.2963 118.289 48.2289 118.289 49.4123C118.289 50.7962 117.787 51.9896 116.785 52.9925C115.802 53.9753 114.127 54.7575 111.76 55.3391C112.262 56.2617 113.214 56.7231 114.618 56.7231C115.521 56.7231 116.544 56.4122 117.687 55.7904C118.851 55.1486 119.853 54.3162 120.696 53.2933C120.936 53.0125 121.207 52.8721 121.508 52.8721ZM113.927 48.5097C113.184 48.5097 112.553 48.9409 112.031 49.8034C111.53 50.6658 111.279 51.7088 111.279 52.9323V52.9925C112.462 52.7117 113.395 52.2905 114.077 51.7289C114.759 51.1673 115.1 50.5154 115.1 49.7733C115.1 49.3922 114.99 49.0914 114.769 48.8707C114.568 48.6301 114.288 48.5097 113.927 48.5097ZM125.647 59.7316C123.682 59.7316 122.147 59.18 121.044 58.0769C119.961 56.9537 119.419 55.4795 119.419 53.6543C119.419 52.0297 119.74 50.6057 120.382 49.3822C121.024 48.1587 121.856 47.216 122.879 46.5542C123.902 45.8923 124.975 45.5613 126.098 45.5613C127.202 45.5613 128.054 45.8923 128.656 46.5542C129.277 47.196 129.588 48.0284 129.588 49.0513C129.588 49.8937 129.398 50.6057 129.017 51.1873C128.656 51.769 128.174 52.0598 127.573 52.0598C127.192 52.0598 126.881 51.9696 126.64 51.789C126.419 51.6085 126.309 51.3578 126.309 51.0369C126.309 50.8965 126.329 50.736 126.369 50.5555C126.409 50.375 126.439 50.2447 126.459 50.1644C126.56 49.8636 126.61 49.5828 126.61 49.322C126.61 49.0613 126.54 48.8607 126.399 48.7203C126.279 48.5799 126.098 48.5097 125.858 48.5097C125.396 48.5097 124.965 48.7203 124.564 49.1415C124.163 49.5427 123.842 50.0942 123.601 50.7962C123.361 51.4982 123.24 52.2704 123.24 53.1128C123.24 55.4394 124.253 56.6027 126.279 56.6027C127.101 56.6027 127.984 56.3319 128.926 55.7904C129.889 55.2288 130.832 54.3964 131.755 53.2933C131.995 53.0125 132.266 52.8721 132.567 52.8721C132.828 52.8721 133.028 52.9925 133.169 53.2331C133.329 53.4738 133.409 53.8048 133.409 54.226C133.409 54.9881 133.219 55.6099 132.838 56.0913C131.895 57.2546 130.762 58.1571 129.438 58.799C128.134 59.4207 126.871 59.7316 125.647 59.7316ZM133.113 59.7316C132.351 59.7316 131.81 59.3305 131.489 58.5282C131.188 57.7259 131.037 56.4423 131.037 54.6772C131.037 52.0698 131.408 49.5928 132.151 47.2461C132.331 46.6645 132.622 46.2433 133.023 45.9825C133.444 45.7017 134.026 45.5613 134.768 45.5613C135.169 45.5613 135.45 45.6115 135.61 45.7118C135.771 45.8121 135.851 46.0026 135.851 46.2834C135.851 46.6043 135.701 47.3264 135.4 48.4496C135.199 49.2518 135.039 49.9538 134.918 50.5555C134.798 51.1372 134.698 51.8693 134.618 52.7518C135.159 51.1873 135.801 49.8636 136.543 48.7805C137.305 47.6974 138.077 46.8951 138.86 46.3737C139.662 45.8321 140.414 45.5613 141.116 45.5613C141.818 45.5613 142.309 45.7218 142.59 46.0427C142.891 46.3636 143.042 46.855 143.042 47.5169C143.042 48.1587 142.851 49.322 142.47 51.0068C142.309 51.7289 142.199 52.2704 142.139 52.6314C143.142 50.1644 144.255 48.3693 145.478 47.2461C146.702 46.1229 147.845 45.5613 148.908 45.5613C150.212 45.5613 150.864 46.2132 150.864 47.5169C150.864 48.2991 150.643 49.7131 150.202 51.759C149.821 53.5039 149.63 54.6572 149.63 55.2188C149.63 56.0211 149.921 56.4222 150.503 56.4222C150.904 56.4222 151.375 56.1815 151.917 55.7002C152.478 55.1987 153.22 54.3964 154.143 53.2933C154.384 53.0125 154.654 52.8721 154.955 52.8721C155.216 52.8721 155.417 52.9925 155.557 53.2331C155.718 53.4738 155.798 53.8048 155.798 54.226C155.798 55.0282 155.607 55.65 155.226 56.0913C154.364 57.1543 153.431 58.0268 152.428 58.7087C151.445 59.3906 150.322 59.7316 149.059 59.7316C148.036 59.7316 147.263 59.4408 146.742 58.8591C146.221 58.2574 145.96 57.395 145.96 56.2718C145.96 55.7102 146.1 54.7073 146.381 53.2632C146.642 51.9996 146.772 51.1272 146.772 50.6458C146.772 50.3249 146.662 50.1644 146.441 50.1644C146.18 50.1644 145.809 50.5054 145.328 51.1873C144.847 51.8492 144.365 52.7317 143.884 53.8349C143.403 54.938 143.011 56.1013 142.711 57.3248C142.49 58.2875 142.229 58.9293 141.928 59.2502C141.648 59.5711 141.186 59.7316 140.544 59.7316C139.883 59.7316 139.381 59.4207 139.04 58.799C138.719 58.1571 138.559 57.3849 138.559 56.4824C138.559 55.7202 138.659 54.6171 138.86 53.173C139.02 51.8893 139.1 51.0469 139.1 50.6458C139.1 50.3249 138.99 50.1644 138.769 50.1644C138.469 50.1644 138.087 50.5254 137.626 51.2475C137.165 51.9696 136.714 52.8922 136.272 54.0154C135.851 55.1386 135.51 56.2417 135.249 57.3248C135.029 58.2674 134.768 58.9093 134.467 59.2502C134.186 59.5711 133.735 59.7316 133.113 59.7316ZM166.783 52.8721C167.044 52.8721 167.244 52.9925 167.385 53.2331C167.545 53.4738 167.626 53.8048 167.626 54.226C167.626 55.0282 167.435 55.65 167.054 56.0913C166.312 56.9938 165.259 57.8262 163.895 58.5884C162.551 59.3505 161.107 59.7316 159.563 59.7316C157.457 59.7316 155.822 59.16 154.659 58.0167C153.495 56.8735 152.914 55.309 152.914 53.3234C152.914 51.9395 153.205 50.6558 153.786 49.4725C154.368 48.269 155.17 47.3163 156.193 46.6143C157.236 45.9123 158.409 45.5613 159.713 45.5613C160.876 45.5613 161.809 45.9123 162.511 46.6143C163.213 47.2963 163.564 48.2289 163.564 49.4123C163.564 50.7962 163.063 51.9896 162.06 52.9925C161.077 53.9753 159.402 54.7575 157.035 55.3391C157.537 56.2617 158.49 56.7231 159.894 56.7231C160.796 56.7231 161.819 56.4122 162.962 55.7904C164.126 55.1486 165.128 54.3162 165.971 53.2933C166.212 53.0125 166.482 52.8721 166.783 52.8721ZM159.202 48.5097C158.46 48.5097 157.828 48.9409 157.306 49.8034C156.805 50.6658 156.554 51.7088 156.554 52.9323V52.9925C157.737 52.7117 158.67 52.2905 159.352 51.7289C160.034 51.1673 160.375 50.5154 160.375 49.7733C160.375 49.3922 160.265 49.0914 160.044 48.8707C159.843 48.6301 159.563 48.5097 159.202 48.5097Z" fill="black"/>
</svg>
