<svg width="39" height="39" viewBox="0 0 39 39" fill="none" xmlns="http://www.w3.org/2000/svg">
<g clip-path="url(#clip0)">
<path d="M39 7.40756C37.5497 8.04375 36.0043 8.46544 34.3931 8.67019C36.0506 7.68056 37.3157 6.12544 37.9104 4.251C36.3651 5.17237 34.6588 5.82319 32.8404 6.18637C31.3731 4.62394 29.2817 3.65625 27.0002 3.65625C22.5737 3.65625 19.0101 7.24912 19.0101 11.6537C19.0101 12.2874 19.0637 12.8968 19.1953 13.4769C12.5483 13.1527 6.66656 9.96694 2.71537 5.11388C2.02556 6.31069 1.62094 7.68056 1.62094 9.15525C1.62094 11.9242 3.04688 14.3788 5.17237 15.7999C3.88781 15.7755 2.62762 15.4026 1.56 14.8151C1.56 14.8395 1.56 14.8712 1.56 14.9029C1.56 18.7882 4.33144 22.0155 7.96575 22.7589C7.31494 22.9369 6.60563 23.0222 5.8695 23.0222C5.35763 23.0222 4.84087 22.9929 4.35581 22.8857C5.39175 26.052 8.33138 28.3798 11.8268 28.4554C9.1065 30.5833 5.65256 31.8654 1.91344 31.8654C1.25775 31.8654 0.628875 31.8362 0 31.7557C3.54169 34.0397 7.73906 35.3437 12.2655 35.3437C26.9783 35.3437 35.022 23.1562 35.022 12.5921C35.022 12.2387 35.0098 11.8974 34.9927 11.5586C36.5796 10.4325 37.9129 9.02606 39 7.40756Z" fill="#6F6F6F"/>
</g>
<defs>
<clipPath id="clip0">
<rect width="39" height="39" fill="white"/>
</clipPath>
</defs>
</svg>
