<svg width="39" height="39" viewBox="0 0 39 39" fill="none" xmlns="http://www.w3.org/2000/svg">
<path d="M37.0088 10.3613C36.5875 8.79495 35.3525 7.56021 33.7864 7.13843C30.9253 6.35559 19.4805 6.35559 19.4805 6.35559C19.4805 6.35559 8.03621 6.35559 5.17507 7.10875C3.63907 7.53008 2.37397 8.79517 1.95265 10.3613C1.19971 13.2222 1.19971 19.1553 1.19971 19.1553C1.19971 19.1553 1.19971 25.1184 1.95265 27.9494C2.37442 29.5155 3.60894 30.7503 5.1753 31.172C8.06633 31.9551 19.481 31.9551 19.481 31.9551C19.481 31.9551 30.9253 31.9551 33.7864 31.2019C35.3527 30.7804 36.5875 29.5456 37.0093 27.9795C37.762 25.1184 37.762 19.1855 37.762 19.1855C37.762 19.1855 37.7921 13.2222 37.0088 10.3613ZM15.8368 24.6366V13.6741L25.3536 19.1553L15.8368 24.6366Z" fill="#6F6F6F"/>
</svg>
